<svg xmlns="http://www.w3.org/2000/svg" viewBox="0 0 64 64">
  <defs><g id="u">
        <g stroke="#1a5c4a" stroke-width="2.8" fill="none" opacity="0.4" stroke-linecap="round"><path d="M2,6 L6,6 L6,12 L2,12 Z M4,7 L4,11 M10,6 L14,6 L14,12 L10,12 Z M12,7 L12,11 M18,6 L22,6 L22,12 L18,12 Z M20,7 L20,11 M26,6 L30,6 L30,12 L26,12 Z M28,7 L28,11"/></g>
        <g stroke="#d4a373" stroke-width="1.8" fill="none" opacity="1" stroke-linecap="round"><path d="M2,6 L6,6 L6,12 L2,12 Z M4,7 L4,11 M10,6 L14,6 L14,12 L10,12 Z M12,7 L12,11 M18,6 L22,6 L22,12 L18,12 Z M20,7 L20,11 M26,6 L30,6 L30,12 L26,12 Z M28,7 L28,11"/></g>
    </g></defs>
  <use href="#u" transform="translate(16,0)"/>
  <use href="#u" transform="translate(16,64) scale(1,-1)"/>
  <use href="#u" transform="matrix(0,1,1,0,0,16)"/>
  <use href="#u" transform="matrix(0,1,-1,0,64,16)"/>
</svg>