<svg xmlns="http://www.w3.org/2000/svg" viewBox="0 0 200 200"><circle cx="100" cy="100" r="28" fill="none" stroke="#b87333" stroke-width="1"/><circle cx="100" cy="100" r="50" fill="none" stroke="#b87333" stroke-width="1"/><circle cx="100" cy="100" r="72" fill="none" stroke="#b87333" stroke-width="1"/><circle cx="100" cy="100" r="92" fill="none" stroke="#b87333" stroke-width="1"/><line x1="192.0" y1="100.0" x2="198.0" y2="100.0" stroke="#b87333" stroke-width="1"/><line x1="185.0" y1="135.2" x2="190.5" y2="137.5" stroke="#b87333" stroke-width="1"/><line x1="165.1" y1="165.1" x2="169.3" y2="169.3" stroke="#b87333" stroke-width="1"/><line x1="135.2" y1="185.0" x2="137.5" y2="190.5" stroke="#b87333" stroke-width="1"/><line x1="100.0" y1="192.0" x2="100.0" y2="198.0" stroke="#b87333" stroke-width="1"/><line x1="64.8" y1="185.0" x2="62.5" y2="190.5" stroke="#b87333" stroke-width="1"/><line x1="34.9" y1="165.1" x2="30.7" y2="169.3" stroke="#b87333" stroke-width="1"/><line x1="15.0" y1="135.2" x2="9.5" y2="137.5" stroke="#b87333" stroke-width="1"/><line x1="8.0" y1="100.0" x2="2.0" y2="100.0" stroke="#b87333" stroke-width="1"/><line x1="15.0" y1="64.8" x2="9.5" y2="62.5" stroke="#b87333" stroke-width="1"/><line x1="34.9" y1="34.9" x2="30.7" y2="30.7" stroke="#b87333" stroke-width="1"/><line x1="64.8" y1="15.0" x2="62.5" y2="9.5" stroke="#b87333" stroke-width="1"/><line x1="100.0" y1="8.0" x2="100.0" y2="2.0" stroke="#b87333" stroke-width="1"/><line x1="135.2" y1="15.0" x2="137.5" y2="9.5" stroke="#b87333" stroke-width="1"/><line x1="165.1" y1="34.9" x2="169.3" y2="30.7" stroke="#b87333" stroke-width="1"/><line x1="185.0" y1="64.8" x2="190.5" y2="62.5" stroke="#b87333" stroke-width="1"/><line x1="146.2" y1="119.1" x2="166.5" y2="127.6" stroke="#b87333" stroke-width="0.75" stroke-dasharray="1,3"/><line x1="119.1" y1="146.2" x2="127.6" y2="166.5" stroke="#b87333" stroke-width="0.75" stroke-dasharray="1,3"/><line x1="80.9" y1="146.2" x2="72.4" y2="166.5" stroke="#b87333" stroke-width="0.75" stroke-dasharray="1,3"/><line x1="53.8" y1="119.1" x2="33.5" y2="127.6" stroke="#b87333" stroke-width="0.75" stroke-dasharray="1,3"/><line x1="53.8" y1="80.9" x2="33.5" y2="72.4" stroke="#b87333" stroke-width="0.75" stroke-dasharray="1,3"/><line x1="80.9" y1="53.8" x2="72.4" y2="33.5" stroke="#b87333" stroke-width="0.75" stroke-dasharray="1,3"/><line x1="119.1" y1="53.8" x2="127.6" y2="33.5" stroke="#b87333" stroke-width="0.75" stroke-dasharray="1,3"/><line x1="146.2" y1="80.9" x2="166.5" y2="72.4" stroke="#b87333" stroke-width="0.75" stroke-dasharray="1,3"/></svg>